<?xml version="1.0" standalone="no"?>
<!DOCTYPE svg PUBLIC "-//W3C//DTD SVG 20010904//EN"
 "http://www.w3.org/TR/2001/REC-SVG-20010904/DTD/svg10.dtd">
<svg version="1.0" xmlns="http://www.w3.org/2000/svg"
 width="1000.000000pt" height="1000.000000pt" viewBox="0 0 1000.000000 1000.000000"
 preserveAspectRatio="xMidYMid meet">
<metadata>
Created by potrace 1.11, written by Peter Selinger 2001-2013
</metadata>
<g transform="translate(0.000000,1000.000000) scale(0.100000,-0.100000)"
fill="#000000" stroke="none">
<path d="M1184 9968 c-14 -408 -17 -590 -18 -988 0 -419 7 -778 19 -980 2 -36
6 -121 10 -190 3 -69 7 -145 9 -170 3 -25 7 -90 11 -145 3 -55 8 -116 10 -135
2 -19 7 -71 10 -115 3 -44 8 -91 10 -105 2 -14 6 -56 10 -95 3 -38 8 -88 10
-110 3 -22 7 -61 10 -87 3 -26 7 -62 9 -80 3 -18 8 -55 11 -83 3 -27 8 -63 10
-80 2 -16 7 -50 10 -75 3 -25 7 -54 9 -65 2 -11 7 -42 10 -70 13 -91 22 -152
46 -295 5 -30 11 -71 14 -90 15 -97 97 -497 150 -730 82 -358 263 -957 377
-1250 18 -47 34 -87 34 -90 1 -3 5 -14 10 -25 4 -11 25 -63 45 -115 153 -385
375 -839 583 -1190 108 -182 198 -324 209 -328 4 -2 8 -8 8 -13 0 -8 102 -160
196 -294 81 -114 371 -486 398 -510 6 -5 24 -26 40 -45 173 -211 521 -565 818
-831 184 -166 542 -453 706 -568 l32 -23 93 69 c50 37 97 72 104 78 14 11 13
10 103 79 36 28 81 64 100 80 20 17 54 45 75 63 86 69 112 91 204 172 323 283
650 613 887 896 33 38 67 79 77 90 65 72 330 419 405 531 7 10 36 53 65 94 29
41 95 143 146 225 52 83 104 166 116 185 112 178 356 643 460 880 21 47 48
108 60 135 12 28 50 120 84 205 34 85 66 164 70 175 9 21 40 105 90 245 97
272 276 883 305 1040 2 14 16 72 30 130 21 88 36 160 82 385 2 11 7 34 9 50 3
17 12 64 20 105 15 77 24 127 30 170 6 44 16 104 21 130 3 14 7 39 9 55 9 67
17 118 20 134 2 10 6 42 10 71 4 29 8 61 10 71 2 10 6 45 10 78 3 33 7 68 9
78 2 10 7 47 10 83 4 36 9 76 11 90 2 14 7 52 10 85 5 63 12 133 20 200 2 22
7 74 10 115 3 41 8 98 11 125 2 28 7 88 9 135 3 47 7 112 10 145 22 281 38
825 38 1280 0 374 -11 924 -22 1033 -1 9 -771 12 -3814 12 l-3812 0 -1 -32z
m4008 -1642 c72 -7 99 -12 128 -21 10 -3 28 -8 41 -10 158 -31 421 -164 565
-287 28 -24 74 -59 102 -77 43 -27 122 -116 122 -137 0 -3 13 -24 29 -47 16
-23 46 -69 66 -102 21 -33 66 -99 101 -146 42 -56 68 -104 78 -140 9 -30 33
-115 55 -189 87 -294 95 -389 45 -537 -73 -213 -289 -502 -465 -618 -120 -80
-181 -99 -395 -120 -34 -4 -83 -8 -110 -11 -27 -3 -63 -6 -79 -8 -17 -1 -52
-15 -79 -31 l-47 -28 6 -151 c15 -385 15 -510 0 -560 -44 -144 -144 -234 -301
-271 -58 -14 -257 -14 -314 -1 -14 4 -56 11 -95 18 -38 6 -73 16 -76 21 -4 5
-5 23 -4 41 16 174 24 761 12 881 -4 44 -10 105 -13 135 -2 30 -7 78 -10 105
-11 93 -12 205 -3 248 17 74 67 163 120 211 76 69 156 108 314 156 39 12 79
30 90 39 70 61 101 68 245 56 25 -2 83 -6 130 -10 47 -3 110 -8 140 -11 49 -4
56 -2 78 23 84 96 80 215 -15 374 -76 128 -261 290 -399 349 -132 57 -225 75
-373 73 l-85 -1 -37 -41 c-20 -23 -74 -64 -120 -92 -100 -61 -118 -75 -117
-97 1 -17 -10 -159 -18 -242 -7 -75 -36 -173 -62 -215 -60 -96 -141 -137 -282
-141 -91 -3 -98 -2 -167 32 -165 79 -274 268 -268 464 2 74 14 189 21 201 2 3
6 21 9 40 10 55 62 229 87 289 43 101 69 142 131 205 108 109 244 192 427 263
143 55 214 75 379 107 13 2 56 7 95 11 39 3 72 7 73 8 5 4 184 -2 245 -8z
m-282 -3909 c91 -17 217 -49 274 -68 38 -14 40 -17 65 -102 22 -75 35 -98 87
-160 l61 -73 -42 -164 c-24 -91 -46 -174 -51 -185 -24 -62 -135 -176 -224
-230 -91 -55 -163 -77 -265 -81 -224 -8 -368 96 -389 281 -4 28 -8 61 -11 75
-3 14 -7 43 -10 65 -3 22 -7 51 -9 65 -3 14 -7 41 -10 60 -3 19 -8 45 -10 56
-2 12 -7 39 -11 60 -3 22 -10 62 -15 89 l-9 50 47 44 c98 92 213 168 332 218
24 10 135 10 190 0z"/>
</g>
</svg>
