<?xml version="1.0" encoding="utf-8"?>
<!-- Generator: Adobe Illustrator 20.0.0, SVG Export Plug-In . SVG Version: 6.00 Build 0)  -->
<svg version="1.1" id="Layer_1" xmlns="http://www.w3.org/2000/svg" xmlns:xlink="http://www.w3.org/1999/xlink" x="0px" y="0px"
	 width="30px" height="30px" viewBox="0 0 30 30" style="enable-background:new 0 0 30 30;" xml:space="preserve">
<style type="text/css">
	.st0{fill:#002D72;}
</style>
<path class="st0" d="M26.943161,24.7939835l-7.7296753-7.7296753c0.947876-1.4268188,1.5027466-3.1375732,1.5030518-4.9793091
	c-0.0007935-4.9781494-4.034729-9.012085-9.0128784-9.0128784c-4.9782104,0.0007935-9.012085,4.034729-9.0129395,9.0128784
	c0.0008545,4.9782104,4.034729,9.012085,9.0129395,9.0129395c2.2331543-0.0003662,4.2722168-0.8167725,5.8464966-2.161438
	l7.6252441,7.6253052c0.4881592,0.4880981,1.2796021,0.4880981,1.7677612,0
	C27.4313202,26.0736465,27.4313202,25.2821426,26.943161,24.7939835z M16.3089447,16.6903458
	c-1.1825562,1.180542-2.8028564,1.9069214-4.6052856,1.9075928c-1.8024902-0.0006714-3.4227905-0.7270508-4.6053467-1.9075928
	c-1.180542-1.1825562-1.9069214-2.8028564-1.9075928-4.6053467c0.0006714-1.8024292,0.7270508-3.4227295,1.9075928-4.6052856
	c1.1825562-1.180542,2.8028564-1.9069824,4.6053467-1.9075928c1.8024292,0.0006104,3.4227295,0.7270508,4.6052856,1.9075928
	c1.180542,1.1825562,1.9069824,2.8028564,1.9075928,4.6052856C18.2159271,13.8874893,17.4894867,15.5077896,16.3089447,16.6903458z"
	/>
</svg>
