<svg version="1.1" id="Layer_1" xmlns="http://www.w3.org/2000/svg" xmlns:xlink="http://www.w3.org/1999/xlink" x="0px" y="0px"
	 width="100px" height="100px" viewBox="0 0 100 100" style="enable-background:new 0 0 100 100;" xml:space="preserve">
<style type="text/css">
	.st0{fill:#DB4437;}
</style>
<path class="st0" d="M91.656,44.229c-0.385,0-0.771,0-1.156,0l-5.135,0.128l-2.31-0.257l-7.802,0.36h-0.788l-6.045-0.617
	l-5.206,0.168l-0.953-0.065l-0.346,0.107l-1.454,0.047c-0.369,0.011-0.72,0.05-1.064,0.101c-1.555-0.282-3.756-0.512-5.736-0.512
	c-2.824,0-7.831,0.386-9.372,0.642l-9.243-1.284l-10.912,0.386l-2.876-0.08l2.107-1.204l4.494-2.182l1.539-1.669l10.014-5.007
	c0,0,12.581-3.081,12.581-7.574c0-3.723-1.798-5.905-4.108-5.905c-2.567,0-5.264,3.209-5.264,3.209l-8.344,3.466l-2.824,0.385
	l-15.02,9.115c0,0-4.236,1.669-6.418,3.466c-1.669,1.155-3.979,3.979-3.979,3.979L1.54,45.359L0,49.724l1.027,2.311l20.411,15.662
	l17.203,10.27l3.08,2.567c0.514,0.385,1.028,0.642,1.67,0.642c2.438,0,5.52-3.209,5.52-6.804c0-2.311-4.621-6.932-4.621-6.932
	l-3.338-0.77l-1.541-1.284l-4.622-0.899l-5.135-3.209l-4.365-1.797l-6.198-5.285c0.706,0.098,1.413,0.15,2.089,0.15h2.055
	l2.824,0.386l11.04-0.258l17.716,0.514l4.608,0.378c1.106,0.261,2.347,0.418,3.734,0.418c0.513,0,1.155-0.128,1.796-0.128
	l5.136-0.514l1.796,0.385l5.521-0.257L81.9,56.04l6.547-0.514c7.06-0.77,11.553-1.284,11.553-5.392
	C100,46.925,96.277,44.229,91.656,44.229z"/>
</svg>
