<?xml version="1.0" encoding="utf-8"?>
<!-- Generator: Adobe Illustrator 20.0.0, SVG Export Plug-In . SVG Version: 6.00 Build 0)  -->
<svg version="1.1" id="Layer_1" xmlns="http://www.w3.org/2000/svg" xmlns:xlink="http://www.w3.org/1999/xlink" x="0px" y="0px"
	 width="30px" height="30px" viewBox="0 0 30 30" style="enable-background:new 0 0 30 30;" xml:space="preserve">
<style type="text/css">
	.st0{fill:#002D72;}
</style>
<path class="st0" d="M16.8,14.9l8.2-8.2c0.5-0.5,0.5-1.3,0-1.8s-1.3-0.5-1.8,0L15,13.1L6.8,5C6.3,4.5,5.5,4.5,5.1,5s-0.5,1.3,0,1.8
	l8.2,8.2l-8.2,8.2c-0.5,0.5-0.5,1.3,0,1.8c0.2,0.2,0.6,0.4,0.9,0.4s0.6-0.1,0.9-0.4l8.2-8.2l8.2,8.2c0.2,0.2,0.6,0.4,0.9,0.4
	s0.6-0.1,0.9-0.4c0.5-0.5,0.5-1.3,0-1.8L16.8,14.9z"/>
</svg>
