<?xml version="1.0" encoding="utf-8"?>
<!-- Generator: Adobe Illustrator 24.3.0, SVG Export Plug-In . SVG Version: 6.00 Build 0)  -->
<svg version="1.1" id="Layer_1" xmlns="http://www.w3.org/2000/svg" xmlns:xlink="http://www.w3.org/1999/xlink" x="0px" y="0px"
	 width="500px" height="500px" viewBox="0 0 500 500" style="enable-background:new 0 0 500 500;" xml:space="preserve">
<style type="text/css">
	.st0{fill:#002E5E;}
</style>
<g>
	<path class="st0" d="M250.117,155c-1.027,0-2.568,0-3.595,0c-10.784,0-21.568-4.109-25.165-10.785l-7.703-13.866l4.109-20.029
		l13.352-12.839L241.9,82.074l17.461,2.055c13.868,2.568,23.624,9.757,23.624,27.732C282.985,137.539,264.496,155,250.117,155z
		 M282.472,250.523l3.081,55.465l-3.081,12.839c0,0-4.108,16.434-4.108,27.219c0,11.297,4.108,31.839,4.108,31.839l-2.568,12.84
		c-4.108,14.379-16.434,27.732-29.273,27.732c-17.461,0-24.139-9.244-24.139-31.328c0-3.081,3.082-11.813,3.082-18.487l-1.54-31.842
		c0,0-3.081-27.219-3.081-54.951c0-17.461,1.539-34.923,5.136-45.194l4.621-12.326l5.136-14.893
		c3.595-8.217,14.894-16.948,24.137-16.948c16.948,0,19.516,21.056,19.516,21.056l2.568,9.244L282.472,250.523z"/>
</g>
</svg>
