<?xml version="1.0" encoding="utf-8"?>
<!-- Generator: Adobe Illustrator 24.3.0, SVG Export Plug-In . SVG Version: 6.00 Build 0)  -->
<svg version="1.1" id="Layer_1" xmlns="http://www.w3.org/2000/svg" xmlns:xlink="http://www.w3.org/1999/xlink" x="0px" y="0px"
	 width="500px" height="500px" viewBox="0 0 500 500" style="enable-background:new 0 0 500 500;" xml:space="preserve">
<style type="text/css">
	.st0{fill:#002E5E;}
</style>
<path class="st0" d="M440.359,0.682l-0.02-0.462H59.124l-0.02,0.462c-4.838,117.028,6.293,212.026,34.035,290.413
	c30.592,86.456,81.719,154.807,156.312,208.925l0.281,0.201l0.281-0.201c74.593-54.118,125.72-122.468,156.312-208.925
	C434.056,212.698,445.187,117.711,440.359,0.682z M258.83,316.273c-1.051,6.3-12.6,18.2-25.9,18.2c-19.25,0-18.9-15.051-18.9-15.051
	l-2.1-13.65l-2.1-11.55c0,0,13.65-13.65,22.75-13.65c7,0,21.35,4.55,21.35,4.55l2.45,8.751l6.3,7.35L258.83,316.273z M312.73,182.92
	c-8.75,13.3-17.85,22.4-30.45,24.15l-17.5,1.75l-4.55,2.8l1.05,28c0,0.35,0,1.05,0,1.4c0,12.95-9.101,20.3-23.101,20.3
	c-5.95,0-17.15-2.45-17.15-2.45l1.4-37.101l-2.45-26.601c0-1.05,0-1.75,0-2.8c0-16.45,16.8-21.351,23.8-22.75l7.701-4.9l23.449,1.75
	c1.75-2.1,4.201-4.9,4.201-8.4c0-12.25-17.851-32.55-40.251-32.55c-2.1,0-4.2,0-6.3,0.35l-3.5,3.85l-9.8,5.95l-1.05,12.601
	c-1.05,12.25-5.95,18.9-18.201,18.9c-12.25,0-21-12.6-21-24.5c0-8.05,4.55-29.75,11.9-36.751c12.25-12.6,35.351-19.95,53.551-19.95
	c26.601,0,44.101,15.75,46.552,18.2l5.949,3.85l10.5,16.45l5.25,7c0,0,7.701,23.45,7.701,29.75
	C320.431,166.82,318.331,174.87,312.73,182.92z"/>
</svg>
