<?xml version="1.0" encoding="utf-8"?>
<!-- Generator: Adobe Illustrator 24.3.0, SVG Export Plug-In . SVG Version: 6.00 Build 0)  -->
<svg version="1.1" id="Layer_1" xmlns="http://www.w3.org/2000/svg" xmlns:xlink="http://www.w3.org/1999/xlink" x="0px" y="0px"
	 width="1000px" height="1000px" viewBox="0 0 1000 1000" style="enable-background:new 0 0 1000 1000;" xml:space="preserve">
<style type="text/css">
	.st0{fill:#002E5E;}
</style>
<path class="st0" d="M804.9,100.739L804.868,100H194.923l-0.032,0.739c-7.74,187.245,10.069,339.242,54.455,464.661
	c48.947,138.33,130.751,247.691,250.099,334.279l0.45,0.321l0.45-0.321C619.694,813.09,701.497,703.73,750.444,565.399
	C794.815,439.964,812.624,287.984,804.9,100.739z M525.747,602.86c-1.687,10.117-20.234,29.227-41.593,29.227
	c-30.914,0-30.352-24.17-30.352-24.17l-3.372-21.921l-3.372-18.548c0,0,21.921-21.921,36.534-21.921
	c11.241,0,34.286,7.306,34.286,7.306l3.935,14.053l10.117,11.803L525.747,602.86z M612.305,388.711
	c-14.051,21.359-28.666,35.972-48.899,38.783l-28.103,2.81l-7.307,4.497l1.685,44.965c0,0.561,0,1.686,0,2.248
	c0,20.796-14.613,32.601-37.095,32.601c-9.555,0-27.541-3.935-27.541-3.935l2.248-59.58l-3.934-42.717c0-1.686,0-2.81,0-4.496
	c0-26.417,26.979-34.286,38.22-36.534l12.366-7.869l37.657,2.81c2.81-3.372,6.745-7.869,6.745-13.49
	c0-19.672-28.666-52.272-64.637-52.272c-3.372,0-6.744,0-10.117,0.562l-5.621,6.182l-15.738,9.555l-1.686,20.235
	c-1.687,19.672-9.555,30.351-29.228,30.351c-19.672,0-33.723-20.234-33.723-39.344c0-12.928,7.306-47.776,19.11-59.018
	c19.673-20.234,56.769-32.038,85.997-32.038c42.717,0,70.819,25.293,74.754,29.227l9.555,6.183l16.862,26.417l8.431,11.242
	c0,0,12.366,37.658,12.366,47.776C624.67,362.857,621.299,375.784,612.305,388.711z"/>
</svg>
